<svg xmlns="http://www.w3.org/2000/svg" version="1.1" xmlns:xlink="http://www.w3.org/1999/xlink" xmlns:svgjs="http://svgjs.dev/svgjs" width="1000" height="1000" viewBox="0 0 1000 1000"><rect width="1000" height="1000" fill="#ffffff"></rect><g transform="matrix(0.7,0,0,0.7,149.57575757575756,282.1265587044535)"><svg viewBox="0 0 396 247" data-background-color="#0074d9" preserveAspectRatio="xMidYMid meet" height="623" width="1000" xmlns="http://www.w3.org/2000/svg" xmlns:xlink="http://www.w3.org/1999/xlink"><g id="tight-bounds" transform="matrix(1,0,0,1,0.2400000000000091,-0.09999999999999432)"><svg viewBox="0 0 395.52 247.2" height="247.2" width="395.52"><g><svg></svg></g><g><svg viewBox="0 0 395.52 247.2" height="247.2" width="395.52"><g transform="matrix(1,0,0,1,75.54432,69.44151339094365)"><svg viewBox="0 0 244.43135999999998 108.31697321811268" height="108.31697321811268" width="244.43135999999998"><g><svg viewBox="0 0 244.43135999999998 108.31697321811268" height="108.31697321811268" width="244.43135999999998"><g><svg viewBox="0 0 244.43135999999998 108.31697321811268" height="108.31697321811268" width="244.43135999999998"><g><svg viewBox="0 0 244.43135999999998 108.31697321811268" height="108.31697321811268" width="244.43135999999998"><g><svg viewBox="0 0 244.43135999999998 108.31697321811268" height="108.31697321811268" width="244.43135999999998" id="textblock"><g><svg viewBox="0 0 244.43135999999998 108.31697321811268" height="108.31697321811268" width="244.43135999999998"><g transform="matrix(1,0,0,1,0,0)"><svg width="244.43135999999998" viewBox="4.25 -54.400001525878906 144.63999938964844 64.0999984741211" height="108.31697321811268" data-palette-color="#ffffff"><path d="M69.3 3.45Q69.55 3.6 69.73 4 69.9 4.4 69.9 4.8L69.9 4.8Q69.9 6.2 68.13 7.33 66.35 8.45 63.53 9.08 60.7 9.7 57.7 9.7L57.7 9.7Q50.95 9.7 42.58 6.45 34.2 3.2 26.38-2.6 18.55-8.4 13.45-15.6L13.45-15.6Q11.6-8 10.15-1.25L10.15-1.25Q9.95-0.45 9.73-0.25 9.5-0.05 8.9 0L8.9 0Q8.05 0.05 7.55 0.18 7.05 0.3 6.7 0.6L6.7 0.6Q6.15 0.6 6.15 0.25L6.15 0.25Q7.95-4.15 9.88-11.45 11.8-18.75 13.23-25.38 14.65-32 14.65-32.7L14.65-32.7Q14.65-32.85 14.53-33.02 14.4-33.2 14.1-33.2L14.1-33.2Q13.2-33.2 8.95-32.95L8.95-32.95Q6.25-32.75 5.55-32.75L5.55-32.75Q4.75-32.75 4.5-32.88 4.25-33 4.25-33.4L4.25-33.4Q4.25-34.15 4.63-35.23 5-36.3 5.55-36.3L5.55-36.3Q5.65-35.45 7.35-35.2 9.05-34.95 11.85-34.95L11.85-34.95Q14.05-34.95 15.93-35.08 17.8-35.2 19.5-35.35L19.5-35.35 22.25-35.6Q22.25-34.85 21.95-33.5L21.95-33.5 18.4-33.4Q18.1-33.4 17.85-33.23 17.6-33.05 17.55-32.75L17.55-32.75Q16-26.4 13.95-17.75L13.95-17.75Q16.4-19.55 23.15-25L23.15-25Q27.65-28.65 30.9-31.18 34.15-33.7 37.5-35.9L37.5-35.9 37.8-35.9Q38.8-35.35 40.35-34.85L40.35-34.85 40.35-34.45Q39.2-34.65 30.18-28 21.15-21.35 15.35-16.65L15.35-16.65Q20.85-9.3 28.1-3.78 35.35 1.75 43 4.73 50.65 7.7 57.35 7.7L57.35 7.7Q60.35 7.7 62.53 7.13 64.7 6.55 66.15 5.68 67.6 4.8 69.3 3.45L69.3 3.45ZM68.9-54.4Q73.2-54.4 75.7-52.03 78.2-49.65 78.2-45.35L78.2-45.35 77.85-44.75Q76.75-48.15 74.4-49.78 72.05-51.4 68.75-51.4L68.75-51.4Q61.8-51.4 56.95-43.58 52.1-35.75 48.55-21L48.55-21 47.25-15.35 46.6-12.45Q48.65-15.35 51.8-18.07 54.95-20.8 56.55-20.8L56.55-20.8Q56.95-20.8 57.72-20.05 58.5-19.3 58.5-18.95L58.5-18.95Q57.55-16.2 56.25-10.9 54.95-5.6 54.95-4.15L54.95-4.15Q54.95-2.75 55.4-2.13 55.85-1.5 57.25-1.5L57.25-1.5Q59.75-1.5 62.1-3.4 64.45-5.3 66.17-7.73 67.9-10.15 68.8-12L68.8-12Q69.15-11.9 69.35-11.65 69.55-11.4 69.6-10.9L69.6-10.9 69.6-10.75Q69.6-10.15 69.2-9.35L69.2-9.35Q66.9-5.15 63.3-2.27 59.7 0.6 56.3 0.6L56.3 0.6Q54.55 0.6 53.5-0.5 52.45-1.6 52.45-3.6L52.45-3.6Q52.45-5.55 53.07-8.4 53.7-11.25 54.75-15.1L54.75-15.1Q54.7-14.85 55.3-17.15L55.3-17.15Q55.25-17.35 55.05-17.5 54.85-17.65 54.7-17.65L54.7-17.65Q54.2-17.65 52.35-16 50.5-14.35 48.6-12.05 46.7-9.75 45.75-7.75L45.75-7.75Q45.25-5.75 44.75-2.75L44.75-2.75Q44.7-2.4 44.65-2 44.6-1.6 44.5-1.2L44.5-1.2Q44.35-0.3 44.22 0.03 44.1 0.35 43.8 0.35L43.8 0.35Q43.2 0.35 42.45 0.05 41.7-0.25 41.7-0.7L41.7-0.7Q41.7-1.35 42-2.6L42-2.6 46.35-21.05Q50-36.65 55.65-45.53 61.3-54.4 68.9-54.4L68.9-54.4ZM94.8-11.55Q95.45-11.55 95.45-10.25L95.45-10.25Q95.45-7.95 93.42-5.4 91.4-2.85 88.52-1.13 85.65 0.6 83.25 0.6L83.25 0.6Q81.3 0.6 80.25-0.6 79.2-1.8 79-3.7L79-3.7Q77.75-1.9 75.85-0.75 73.95 0.4 72.45 0.4L72.45 0.4Q71.15 0.4 69.87-0.48 68.6-1.35 67.8-2.63 67-3.9 66.95-5.05L66.95-5.05 69.4-15.15Q69.7-16.35 70.92-17.73 72.15-19.1 73.9-20 75.65-20.9 77.45-20.9L77.45-20.9Q79.75-20.9 81.5-19.35L81.5-19.35Q81.95-20.55 82.17-20.85 82.4-21.15 82.85-21.2L82.85-21.2 85.3-21.45 85.45-21.35Q84.45-20.55 84-18.85L84-18.85Q82.45-13.05 81.87-10.3 81.3-7.55 81.3-5.45L81.3-5.45Q81.3-3.35 81.85-2.38 82.4-1.4 83.7-1.4L83.7-1.4Q85.3-1.4 87.52-2.7 89.75-4 91.75-6.33 93.75-8.65 94.8-11.55L94.8-11.55ZM72.65-1.95Q73.5-1.95 74.72-2.55 75.95-3.15 77.02-4.28 78.1-5.4 78.5-6.85L78.5-6.85 79.45-10.95Q79.65-11.95 80.15-14.18 80.65-16.4 80.95-17.6L80.95-17.6Q79.55-19 77.55-19L77.55-19Q76-19 74.75-18.18 73.5-17.35 72.7-16.18 71.9-15 71.7-14.1L71.7-14.1 69.7-5.2Q69.8-3.95 70.7-2.95 71.6-1.95 72.65-1.95L72.65-1.95ZM113.74-14Q114.24-14 114.54-13.53 114.84-13.05 114.84-12.35L114.84-12.35Q114.84-11.45 114.34-10.45L114.34-10.45Q112.94-7.5 110.34-5.03 107.74-2.55 104.72-1.1 101.69 0.35 99.09 0.35L99.09 0.35Q93.79 0.35 93.79-5.8L93.79-5.8Q93.79-10.1 96.14-19.63 98.49-29.15 102.94-44.9L102.94-44.9Q103.89-48.15 105.02-49.7 106.14-51.25 107.59-51.25L107.59-51.25Q108.64-51.25 109.62-50.53 110.59-49.8 111.24-48.3 111.89-46.8 111.89-44.6L111.89-44.6Q111.89-41.05 110.22-35.6 108.54-30.15 105.19-24.1 101.84-18.05 97.14-12.9L97.14-12.9Q96.29-8.5 96.29-6.35L96.29-6.35Q96.29-3.95 97.27-2.93 98.24-1.9 99.99-1.9L99.99-1.9Q102.44-1.9 105.22-3.55 107.99-5.2 110.29-8 112.59-10.8 113.74-14L113.74-14ZM104.24-41.75Q100.04-26.65 97.89-16.7L97.89-16.7Q101.59-21.35 104.27-26.85 106.94-32.35 108.27-37.15 109.59-41.95 109.59-44.7L109.59-44.7Q109.59-46.25 109.14-47.38 108.69-48.5 107.64-48.5L107.64-48.5Q107.04-48.5 106.22-47.25 105.39-46 104.24-41.75L104.24-41.75ZM116.49 0.35Q114.74 0.35 113.37-0.83 111.99-2 111.99-4.3L111.99-4.3Q112.74-6.7 114.59-14.95L114.59-14.95Q115.49-19 115.69-19.8L115.69-19.8Q116.34-20.9 117.49-20.9L117.49-20.9Q118.24-20.9 118.24-20.4L118.24-20.4Q117.89-19.15 117.27-16.43 116.64-13.7 116.29-12.15L116.29-12.15Q114.94-5.95 114.44-4.2L114.44-4.2Q114.44-3.05 115.12-2.43 115.79-1.8 116.89-1.8L116.89-1.8Q119.39-1.8 121.92-3.58 124.44-5.35 126.37-7.7 128.29-10.05 129.24-11.75L129.24-11.75Q129.54-11.65 129.64-11.43 129.74-11.2 129.74-10.65L129.74-10.65Q129.74-9.9 129.24-9.1L129.24-9.1Q126.54-4.85 123.19-2.25 119.84 0.35 116.49 0.35L116.49 0.35ZM118.79-27.15Q118.09-27.15 117.69-27.63 117.29-28.1 117.29-28.85L117.29-28.85Q117.29-29.85 117.94-30.68 118.59-31.5 119.59-31.5L119.59-31.5Q120.39-31.5 120.77-31 121.14-30.5 121.14-29.8L121.14-29.8Q121.14-28.8 120.47-27.98 119.79-27.15 118.79-27.15L118.79-27.15ZM147.79-14Q148.29-14 148.59-13.53 148.89-13.05 148.89-12.35L148.89-12.35Q148.89-11.45 148.39-10.45L148.39-10.45Q146.99-7.5 144.39-5.03 141.79-2.55 138.76-1.1 135.74 0.35 133.14 0.35L133.14 0.35Q127.84 0.35 127.84-5.8L127.84-5.8Q127.84-10.1 130.19-19.63 132.54-29.15 136.99-44.9L136.99-44.9Q137.94-48.15 139.06-49.7 140.19-51.25 141.64-51.25L141.64-51.25Q142.69-51.25 143.66-50.53 144.64-49.8 145.29-48.3 145.94-46.8 145.94-44.6L145.94-44.6Q145.94-41.05 144.26-35.6 142.59-30.15 139.24-24.1 135.89-18.05 131.19-12.9L131.19-12.9Q130.34-8.5 130.34-6.35L130.34-6.35Q130.34-3.95 131.31-2.93 132.29-1.9 134.04-1.9L134.04-1.9Q136.49-1.9 139.26-3.55 142.04-5.2 144.34-8 146.64-10.8 147.79-14L147.79-14ZM138.29-41.75Q134.09-26.65 131.94-16.7L131.94-16.7Q135.64-21.35 138.31-26.85 140.99-32.35 142.31-37.15 143.64-41.95 143.64-44.7L143.64-44.7Q143.64-46.25 143.19-47.38 142.74-48.5 141.69-48.5L141.69-48.5Q141.09-48.5 140.26-47.25 139.44-46 138.29-41.75L138.29-41.75Z" opacity="1" transform="matrix(1,0,0,1,0,0)" fill="#000000" class="undefined-text-0" data-fill-palette-color="primary" id="text-0"></path></svg></g></svg></g></svg></g></svg></g><g></g></svg></g></svg></g></svg></g><g><path d="M105.132 43.87A122.216 122.216 0 0 1 290.388 43.87L280.619 43.87A112.448 112.448 0 0 0 114.901 43.87L105.132 43.87M105.132 203.33A122.216 122.216 0 0 0 290.388 203.33L280.619 203.33A112.448 112.448 0 0 1 114.901 203.33L105.132 203.33" fill="#ffffff" stroke="transparent" data-fill-palette-color="tertiary"></path></g></svg></g><defs></defs></svg><rect width="395.52" height="247.2" fill="none" stroke="none" visibility="hidden"></rect></g></svg></g></svg>